<svg xmlns="http://www.w3.org/2000/svg" width="383" height="202.762" viewBox="0 0 383 202.762">
  <g id="Group_4" data-name="Group 4" transform="translate(-510.004 -254.18)">
    <text id="Perfect_Pet_" data-name="Perfect Pet " transform="translate(510.004 384.18)" font-size="84.68" font-family="Wachinanga"><tspan x="0" y="0">Perfect Pet </tspan></text>
    <text id="Resort" transform="translate(601.02 444.941)" font-size="64.827" font-family="CaviarDreams, Caviar Dreams"><tspan x="0" y="0">Resort</tspan></text>
    <g id="Group_2" data-name="Group 2">
      <path id="Path_1" data-name="Path 1" d="M534.525,441.923a55.06,55.06,0,0,1,1.069-12.648c1-4.121,3.078-8.124,6.486-10.648a18.73,18.73,0,0,1,4.991-2.531c8.474-2.974,18.833-1.495,24.931,5.1,3.762,4.067,5.466,10.767,2.043,15.123-3.036,3.865-8.61,4.369-12.943,6.688-4.239,2.27-7.454,6.4-12.06,7.783a11.168,11.168,0,0,1-14.337-9.827" fill="#c7b299" stroke="#c7b299" stroke-miterlimit="10" stroke-width="0.611"/>
      <path id="Path_2" data-name="Path 2" d="M515.726,422.968a3.268,3.268,0,0,0-3.487,2.222,5.012,5.012,0,0,0,.718,4.293,11.294,11.294,0,0,0,3.281,3.047c1.81,1.215,3.924,2.275,6.081,1.957a6.193,6.193,0,0,0,4.893-5.893,4.723,4.723,0,0,0-.55-2.56,7.03,7.03,0,0,0-2.6-2.243,16.307,16.307,0,0,0-4.635-2.19,5.515,5.515,0,0,0-4.865.943" fill="#c7b299" stroke="#c7b299" stroke-miterlimit="10" stroke-width="0.376"/>
      <path id="Path_3" data-name="Path 3" d="M529.727,397.525a3.606,3.606,0,0,0-4.791-.168,5.807,5.807,0,0,0-1.58,4.9,16.193,16.193,0,0,0,1.732,5.425c1.208,2.515,2.812,5.084,5.2,6.27a6.349,6.349,0,0,0,8.221-2.607,5.564,5.564,0,0,0,.817-3.01,10.1,10.1,0,0,0-1.464-4.122,23.812,23.812,0,0,0-3.589-5.5c-1.509-1.574-3.579-2.7-5.519-2.446" fill="#c7b299" stroke="#c7b299" stroke-miterlimit="10" stroke-width="0.45"/>
      <path id="Path_4" data-name="Path 4" d="M558.756,390.959a3.771,3.771,0,0,0-3.946-3.093,6.069,6.069,0,0,0-4.355,3.172,16.927,16.927,0,0,0-1.878,5.653c-.528,2.869-.754,6.029.537,8.505a6.641,6.641,0,0,0,8.555,2.86,5.826,5.826,0,0,0,2.545-2.042,10.58,10.58,0,0,0,1.3-4.386,24.954,24.954,0,0,0,.351-6.855c-.307-2.259-1.362-4.488-3.159-5.467" fill="#c7b299" stroke="#c7b299" stroke-miterlimit="10" stroke-width="0.471"/>
      <path id="Path_5" data-name="Path 5" d="M582.357,406.53a2.851,2.851,0,0,0-2.33-2.752A4.375,4.375,0,0,0,576.4,404.9a9.85,9.85,0,0,0-2.247,3.192c-.838,1.707-1.505,3.658-.977,5.484a5.4,5.4,0,0,0,5.666,3.536,4.113,4.113,0,0,0,2.148-.776,6.141,6.141,0,0,0,1.633-2.508,14.217,14.217,0,0,0,1.347-4.262,4.807,4.807,0,0,0-1.386-4.093" fill="#c7b299" stroke="#c7b299" stroke-miterlimit="10" stroke-width="0.328"/>
    </g>
    <g id="Group_3" data-name="Group 3">
      <path id="Path_6" data-name="Path 6" d="M841.437,441.923a55.115,55.115,0,0,0-1.069-12.648c-1-4.121-3.078-8.124-6.486-10.648a18.745,18.745,0,0,0-4.991-2.531c-8.474-2.974-18.833-1.495-24.931,5.1-3.763,4.067-5.466,10.767-2.044,15.123,3.037,3.865,8.611,4.369,12.944,6.688,4.239,2.27,7.454,6.4,12.06,7.783a11.167,11.167,0,0,0,14.336-9.827" fill="#c7b299" stroke="#c7b299" stroke-miterlimit="10" stroke-width="0.611"/>
      <path id="Path_7" data-name="Path 7" d="M860.236,422.968a3.268,3.268,0,0,1,3.487,2.222,5.015,5.015,0,0,1-.718,4.293,11.293,11.293,0,0,1-3.281,3.047c-1.81,1.215-3.924,2.275-6.081,1.957a6.193,6.193,0,0,1-4.893-5.893,4.723,4.723,0,0,1,.55-2.56,7.023,7.023,0,0,1,2.6-2.243,16.3,16.3,0,0,1,4.634-2.19,5.517,5.517,0,0,1,4.866.943" fill="#c7b299" stroke="#c7b299" stroke-miterlimit="10" stroke-width="0.376"/>
      <path id="Path_8" data-name="Path 8" d="M846.235,397.525a3.606,3.606,0,0,1,4.791-.168,5.807,5.807,0,0,1,1.58,4.9,16.2,16.2,0,0,1-1.732,5.425c-1.208,2.515-2.812,5.084-5.2,6.27a6.351,6.351,0,0,1-8.222-2.607,5.571,5.571,0,0,1-.816-3.01,10.1,10.1,0,0,1,1.464-4.122,23.812,23.812,0,0,1,3.589-5.5c1.509-1.574,3.579-2.7,5.519-2.446" fill="#c7b299" stroke="#c7b299" stroke-miterlimit="10" stroke-width="0.45"/>
      <path id="Path_9" data-name="Path 9" d="M817.206,390.959a3.771,3.771,0,0,1,3.946-3.093,6.071,6.071,0,0,1,4.355,3.172,16.9,16.9,0,0,1,1.877,5.653c.529,2.869.755,6.029-.536,8.505a6.641,6.641,0,0,1-8.555,2.86,5.826,5.826,0,0,1-2.545-2.042,10.581,10.581,0,0,1-1.3-4.386,24.952,24.952,0,0,1-.351-6.855c.307-2.259,1.362-4.488,3.159-5.467" fill="#c7b299" stroke="#c7b299" stroke-miterlimit="10" stroke-width="0.471"/>
      <path id="Path_10" data-name="Path 10" d="M793.6,406.53a2.851,2.851,0,0,1,2.329-2.752,4.373,4.373,0,0,1,3.625,1.125,9.839,9.839,0,0,1,2.248,3.192c.838,1.707,1.505,3.658.977,5.484a5.4,5.4,0,0,1-5.666,3.536,4.113,4.113,0,0,1-2.148-.776,6.142,6.142,0,0,1-1.633-2.508,14.219,14.219,0,0,1-1.348-4.262,4.81,4.81,0,0,1,1.386-4.093" fill="#c7b299" stroke="#c7b299" stroke-miterlimit="10" stroke-width="0.328"/>
    </g>
  </g>
</svg>
