<?xml version="1.0" encoding="utf-8"?>
<!-- Generator: Adobe Illustrator 25.4.1, SVG Export Plug-In . SVG Version: 6.00 Build 0)  -->
<svg version="1.1" id="Layer_1" xmlns="http://www.w3.org/2000/svg" xmlns:xlink="http://www.w3.org/1999/xlink" x="0px" y="0px"
	 viewBox="0 0 361.78 127.37" style="enable-background:new 0 0 361.78 127.37;" xml:space="preserve">
<style type="text/css">
	.st0{fill:#C7B299;}
</style>
<g>
	<path d="M33.06,24.22c0,0.93-0.17,1.86-0.59,2.62c0.25-0.17,0.51-0.42,0.76-0.59c2.71-2.46,3.98-5.76,3.98-9.82
		c0-2.29-0.34-4.4-1.1-6.27c-0.85-1.86-1.95-3.47-3.39-4.66c-1.69-1.35-3.73-2.2-6.01-2.46c-0.68-0.08-2.12-0.08-4.32-0.08h-3.56
		v42.26c0,2.79,0.17,4.91,0.51,6.27s0.93,2.46,1.78,3.39c0.76,0.76,1.61,1.35,2.54,1.69c1.02,0.34,2.29,0.59,3.9,0.68v0.93H1.22
		v-0.93c1.61-0.08,2.88-0.34,3.9-0.68c0.93-0.34,1.78-0.93,2.54-1.69c0.93-0.93,1.52-2.03,1.78-3.39c0.34-1.35,0.42-3.47,0.42-6.27
		V2.63H1.47H1.22V1.69h24.9c4.32,0,7.54,0.25,9.65,0.68c2.03,0.42,3.9,1.27,5.59,2.62c3.9,2.96,5.84,6.94,5.84,11.94
		s-1.86,8.81-5.93,11.09c-3.47,1.86-7.37,2.29-14.31,2.29c-3.39,0-6.1-2.71-6.1-6.1c0-3.3,2.71-6.1,6.1-6.1
		c1.19,0,2.37,0.42,3.3,1.02C31.96,20.24,33.06,22.1,33.06,24.22z"/>
	<path d="M53.97,38.62c0,2.37,0.34,4.74,1.02,7.03c0.68,2.29,1.69,4.23,2.88,5.67c1.27,1.61,2.79,2.79,4.57,3.73
		c1.86,0.85,3.81,1.35,5.76,1.35c1.52,0,2.88-0.25,4.23-0.85c1.35-0.51,2.46-1.1,3.39-2.03c0.42-0.42,0.85-0.93,1.19-1.61
		c-0.51,0.17-1.02,0.34-1.52,0.34c-2.03,0-3.73-1.69-3.73-3.81s1.69-3.73,3.73-3.73c0.76,0,1.44,0.17,2.12,0.59
		c1.02,0.68,1.69,1.86,1.69,3.13c-0.08,3.3-2.62,6.52-4.74,8.04c-2.29,1.69-5.5,2.46-9.4,2.46c-3.39,0-6.27-0.51-8.72-1.61
		c-2.37-1.02-4.49-2.71-6.18-4.91c-2.37-3.13-3.47-6.94-3.47-11.52c0-6.18,2.2-11.09,6.61-14.57c3.22-2.63,6.94-3.9,11.09-3.9
		c2.2,0,4.23,0.42,6.1,1.19c1.86,0.85,3.47,1.95,4.74,3.39c2.03,2.37,3.05,5.17,3.05,8.64H54.14
		C54.06,37.01,53.97,38.02,53.97,38.62z M70.66,27.78c-0.76-1.35-1.69-2.46-2.96-3.22c-1.27-0.76-2.54-1.19-3.98-1.19
		c-2.37,0-4.4,1.02-6.18,3.05c-1.78,2.03-2.79,4.57-3.13,7.62h17.78C72.01,31.33,71.42,29.22,70.66,27.78z"/>
	<path d="M98.68,24.9c2.88-2.03,8.55-3.56,11.6-1.44c1.02,0.68,1.69,1.78,1.69,3.13c0,2.03-1.69,3.73-3.73,3.73
		c-2.12,0-3.81-1.69-3.81-3.73c0-0.34,0.08-0.68,0.17-0.93c-0.85-0.59-1.78-0.93-2.79-0.93c-1.86,0-3.3,1.27-4.32,3.64
		c-1.1,2.46-1.61,5.84-1.61,10.16v7.71v3.13c0,1.86,0.17,3.22,0.34,4.15c0.25,0.85,0.68,1.52,1.35,2.12
		c0.76,0.76,2.12,1.35,4.23,1.69v0.85h-5.93c-0.68,1.1-1.86,1.78-3.22,1.78s-2.54-0.68-3.13-1.78h-6.01v-0.85
		c1.61-0.17,2.79-0.51,3.56-0.93c0.68-0.34,1.27-1.02,1.69-2.03c0.34-0.59,0.51-1.52,0.68-2.79c0.08-1.27,0.17-3.13,0.17-5.59V24.81
		h-5.67v-0.85l10.67-1.52c0.51,2.46,0.76,4.57,0.76,6.35C96.31,27.1,97.5,25.74,98.68,24.9z"/>
	<path d="M133.83,23.8c0,1.27-1.02,2.29-2.29,2.29c-1.02,0-1.86-0.59-2.2-1.52h-3.9v21.68v3.13c0,1.86,0.17,3.22,0.34,4.07
		c0.25,0.93,0.68,1.61,1.35,2.2c0.76,0.76,2.12,1.27,4.23,1.69v0.85h-5.93c-0.68,1.1-1.86,1.78-3.22,1.78s-2.54-0.68-3.22-1.78
		h-5.93v-0.85c1.61-0.25,2.79-0.51,3.56-0.93c0.68-0.42,1.27-1.1,1.69-2.03c0.34-0.68,0.51-1.61,0.68-2.88
		c0.08-1.27,0.17-3.13,0.17-5.59V24.56h-6.01v-1.52h6.01V12.96c0-2.37,0.34-4.32,0.93-5.76c0.59-1.35,1.69-2.63,3.3-3.81
		c1.44-1.1,3.22-1.86,5.33-2.46c2.03-0.59,4.23-0.93,6.61-0.93c2.12,0,3.9,0.34,5.25,1.1c1.27,0.68,1.95,1.95,1.95,3.39
		c0,2.12-1.69,3.81-3.73,3.81c-2.12,0-3.81-1.69-3.81-3.81c0-0.42,0.08-0.85,0.25-1.27c-0.59-1.27-1.69-1.95-3.13-1.95
		c-1.86,0-4.07,0.85-5.17,2.29c-0.59,0.85-1.02,1.86-1.19,3.05c-0.25,1.27-0.34,3.13-0.34,5.5v10.92h3.9
		c0.25-0.93,1.1-1.61,2.2-1.61c0.42,0,0.85,0.17,1.27,0.34C133.4,22.19,133.83,22.95,133.83,23.8z"/>
	<path d="M145.34,38.62c0,2.37,0.34,4.74,1.02,7.03c0.68,2.29,1.69,4.23,2.88,5.67c1.27,1.61,2.79,2.79,4.57,3.73
		c1.86,0.85,3.81,1.35,5.76,1.35c1.52,0,2.88-0.25,4.23-0.85c1.36-0.51,2.46-1.1,3.39-2.03c0.42-0.42,0.85-0.93,1.19-1.61
		c-0.51,0.17-1.02,0.34-1.52,0.34c-2.03,0-3.73-1.69-3.73-3.81s1.69-3.73,3.73-3.73c0.76,0,1.44,0.17,2.12,0.59
		c1.02,0.68,1.69,1.86,1.69,3.13c-0.08,3.3-2.63,6.52-4.74,8.04c-2.29,1.69-5.5,2.46-9.4,2.46c-3.39,0-6.27-0.51-8.72-1.61
		c-2.37-1.02-4.49-2.71-6.18-4.91c-2.37-3.13-3.47-6.94-3.47-11.52c0-6.18,2.2-11.09,6.61-14.57c3.22-2.63,6.94-3.9,11.09-3.9
		c2.2,0,4.23,0.42,6.1,1.19c1.86,0.85,3.47,1.95,4.74,3.39c2.03,2.37,3.05,5.17,3.05,8.64h-24.22
		C145.42,37.01,145.34,38.02,145.34,38.62z M162.02,27.78c-0.76-1.35-1.69-2.46-2.96-3.22s-2.54-1.19-3.98-1.19
		c-2.37,0-4.4,1.02-6.18,3.05c-1.78,2.03-2.79,4.57-3.13,7.62h17.78C163.38,31.33,162.79,29.22,162.02,27.78z"/>
	<path d="M206.65,50.64c-0.93,2.88-2.46,5-4.4,6.35c-2.03,1.27-4.74,1.95-8.21,1.95c-5.5,0-9.91-1.69-13.04-5
		c-3.13-3.22-4.66-7.37-4.66-12.28c0-2.46,0.42-4.83,1.27-7.2c0.93-2.37,2.03-4.4,3.56-6.1c1.61-1.95,3.73-3.39,6.18-4.4
		c2.37-1.02,5.08-1.52,7.96-1.52c3.98,0,7.11,0.85,9.4,2.63c1.36,1.02,2.03,2.12,2.03,3.64c0,0.08,0,0.08,0,0.17
		c-0.08,2.03-1.69,3.64-3.73,3.64c-2.12,0-3.81-1.69-3.81-3.81c0-0.51,0.17-1.02,0.34-1.52c-0.68-2.29-2.12-3.81-4.74-3.81
		c-1.61,0-3.22,0.42-4.57,1.35c-1.19,0.76-2.2,1.78-3.05,2.96c-0.85,1.19-1.52,2.71-2.2,4.57c-0.93,2.79-1.44,5.5-1.44,8.21
		c0,2.37,0.51,4.83,1.35,7.11c0.85,2.37,2.03,4.32,3.56,5.93c2.37,2.46,5.17,3.73,8.3,3.73c2.62,0,4.83-0.85,6.61-2.62
		c0.85-0.85,1.69-2.29,2.46-4.32L206.65,50.64z"/>
	<path d="M231.29,23.03v1.52h-10.5v24.14c0,2.88,0.59,4.91,1.52,6.18c1.86,2.37,6.01,3.05,8.47,1.02c-2.12,0-4.23-1.19-4.23-3.73
		c0-2.12,1.61-3.81,3.73-3.81s3.73,1.69,3.73,3.81c0,2.29-1.86,4.32-4.32,5.59c-1.61,0.76-3.64,1.19-6.1,1.19
		c-3.22,0-5.59-0.68-7.11-1.95c-0.76-0.59-1.27-1.44-1.52-2.37c-0.25-0.93-0.42-2.54-0.42-5V24.56h-4.4v-0.68
		c1.78-0.59,3.47-1.61,5-3.3c0.93-1.02,1.61-2.03,2.2-3.05c0.51-1.02,1.02-2.29,1.52-3.9l0.42-1.35h1.52v10.75H231.29z"/>
	<path d="M287.43,24.22c0,0.93-0.17,1.86-0.59,2.62c0.25-0.17,0.51-0.42,0.76-0.59c2.71-2.46,3.98-5.76,3.98-9.82
		c0-2.29-0.34-4.4-1.1-6.27c-0.85-1.86-1.95-3.47-3.39-4.66c-1.69-1.35-3.73-2.2-6.01-2.46c-0.68-0.08-2.12-0.08-4.32-0.08h-3.56
		v42.26c0,2.79,0.17,4.91,0.51,6.27s0.93,2.46,1.78,3.39c0.76,0.76,1.61,1.35,2.54,1.69c1.02,0.34,2.29,0.59,3.9,0.68v0.93h-26.34
		v-0.93c1.61-0.08,2.88-0.34,3.9-0.68c0.93-0.34,1.78-0.93,2.54-1.69c0.93-0.93,1.52-2.03,1.78-3.39c0.34-1.35,0.42-3.47,0.42-6.27
		V2.63h-8.38h-0.25V1.69h24.9c4.32,0,7.54,0.25,9.65,0.68c2.03,0.42,3.9,1.27,5.59,2.62c3.9,2.96,5.84,6.94,5.84,11.94
		s-1.86,8.81-5.93,11.09c-3.47,1.86-7.37,2.29-14.31,2.29c-3.39,0-6.1-2.71-6.1-6.1c0-3.3,2.71-6.1,6.1-6.1
		c1.19,0,2.37,0.42,3.3,1.02C286.33,20.24,287.43,22.1,287.43,24.22z"/>
	<path d="M308.35,38.62c0,2.37,0.34,4.74,1.02,7.03c0.68,2.29,1.69,4.23,2.88,5.67c1.27,1.61,2.79,2.79,4.57,3.73
		c1.86,0.85,3.81,1.35,5.76,1.35c1.52,0,2.88-0.25,4.23-0.85c1.36-0.51,2.46-1.1,3.39-2.03c0.42-0.42,0.85-0.93,1.19-1.61
		c-0.51,0.17-1.02,0.34-1.52,0.34c-2.03,0-3.73-1.69-3.73-3.81s1.69-3.73,3.73-3.73c0.76,0,1.44,0.17,2.12,0.59
		c1.02,0.68,1.69,1.86,1.69,3.13c-0.08,3.3-2.63,6.52-4.74,8.04c-2.29,1.69-5.5,2.46-9.4,2.46c-3.39,0-6.27-0.51-8.72-1.61
		c-2.37-1.02-4.49-2.71-6.18-4.91c-2.37-3.13-3.47-6.94-3.47-11.52c0-6.18,2.2-11.09,6.61-14.57c3.22-2.63,6.94-3.9,11.09-3.9
		c2.2,0,4.23,0.42,6.1,1.19c1.86,0.85,3.47,1.95,4.74,3.39c2.03,2.37,3.05,5.17,3.05,8.64h-24.22
		C308.43,37.01,308.35,38.02,308.35,38.62z M325.03,27.78c-0.76-1.35-1.69-2.46-2.96-3.22s-2.54-1.19-3.98-1.19
		c-2.37,0-4.4,1.02-6.18,3.05c-1.78,2.03-2.79,4.57-3.13,7.62h17.78C326.39,31.33,325.79,29.22,325.03,27.78z"/>
	<path d="M359.07,23.03v1.52h-10.5v24.14c0,2.88,0.59,4.91,1.52,6.18c1.86,2.37,6.01,3.05,8.47,1.02c-2.12,0-4.23-1.19-4.23-3.73
		c0-2.12,1.61-3.81,3.73-3.81s3.73,1.69,3.73,3.81c0,2.29-1.86,4.32-4.32,5.59c-1.61,0.76-3.64,1.19-6.1,1.19
		c-3.22,0-5.59-0.68-7.11-1.95c-0.76-0.59-1.27-1.44-1.52-2.37c-0.25-0.93-0.42-2.54-0.42-5V24.56h-4.4v-0.68
		c1.78-0.59,3.47-1.61,5-3.3c0.93-1.02,1.61-2.03,2.2-3.05c0.51-1.02,1.02-2.29,1.52-3.9l0.42-1.35h1.52v10.75H359.07z"/>
</g>
<g>
	<path d="M107.26,101.34c-0.27,0.02-0.56,0.03-0.85,0.03H97.8v17.57h-2.85V68.3h13.29c3.86,0.53,7.14,2.14,9.84,4.84
		c3.23,3.23,4.84,7.12,4.84,11.68c0,4.58-1.61,8.48-4.84,11.71c-2.24,2.24-4.8,3.7-7.69,4.4l11.68,18.01h-3.51L107.26,101.34z
		 M97.8,71.18v27.32h8.61c3.76,0,6.97-1.33,9.64-4c2.67-2.67,4-5.89,4-9.67s-1.33-7-4-9.65c-2.67-2.66-5.88-3.99-9.64-3.99H97.8z"/>
	<path d="M134.2,113.12c2.68,2.45,5.87,3.67,9.56,3.67c3.97,0,7.35-1.4,10.16-4.21c0.36-0.36,0.7-0.73,1.01-1.11l3.01,1.08
		c-0.55,0.76-1.17,1.49-1.87,2.18c-3.4,3.4-7.5,5.1-12.31,5.1c-4.79,0-8.88-1.7-12.28-5.1c-3.4-3.4-5.1-7.5-5.1-12.31
		c0-4.79,1.7-8.88,5.1-12.28c3.4-3.4,7.49-5.1,12.28-5.1c4.11,0,7.71,1.23,10.79,3.7c0.51,0.42,1.01,0.89,1.52,1.39
		c0.19,0.19,0.37,0.38,0.54,0.57l-2.15,2.15L134.2,113.12z M152.37,90.93c-2.47-1.9-5.34-2.85-8.61-2.85
		c-3.95,0-7.32,1.4-10.13,4.19c-2.81,2.8-4.21,6.18-4.21,10.15c0,3.27,0.95,6.14,2.85,8.61L152.37,90.93z"/>
	<path d="M174.08,102.96c-2.43-1.31-4.1-2.43-5.03-3.36c-1.46-1.46-2.18-3.21-2.18-5.25c0-2.07,0.73-3.84,2.18-5.3
		c1.46-1.47,3.21-2.2,5.25-2.2c2.07,0,3.78,0.68,5.13,2.03c1.31,1.33,1.96,2.84,1.96,4.53v0.16l-2.47,0.98
		c-0.21-1.6-0.71-2.81-1.5-3.61s-1.83-1.2-3.12-1.2c-1.27,0-2.35,0.45-3.26,1.35c-0.91,0.9-1.36,1.99-1.36,3.28
		c0,1.27,0.45,2.35,1.36,3.26c0.53,0.53,1.65,1.33,3.36,2.41c2.7,1.48,4.62,2.79,5.76,3.92c1.79,1.82,2.69,3.98,2.69,6.49
		c0,2.57-0.9,4.76-2.69,6.57c-1.79,1.8-3.97,2.71-6.52,2.71c-2.55,0-4.73-0.9-6.52-2.71c-1.79-1.8-2.69-3.78-2.69-5.94l2.82-0.73
		c0,1.86,0.63,3.41,1.88,4.65c1.26,1.25,2.76,1.87,4.51,1.87c1.75,0,3.25-0.62,4.51-1.87c1.26-1.24,1.88-2.76,1.88-4.56
		c0-1.75-0.62-3.25-1.87-4.5C177.49,105.26,176.13,104.27,174.08,102.96z"/>
	<path d="M206.4,85.04c4.81,0,8.91,1.7,12.3,5.1s5.08,7.5,5.08,12.31c0,4.79-1.69,8.88-5.08,12.28s-7.49,5.1-12.3,5.1
		c-4.79,0-8.88-1.7-12.28-5.1s-5.1-7.49-5.1-12.28c0-4.81,1.7-8.92,5.1-12.31S201.61,85.04,206.4,85.04z M196.24,92.29
		c-2.81,2.81-4.21,6.19-4.21,10.16c0,3.97,1.4,7.35,4.21,10.15c2.81,2.8,6.19,4.19,10.16,4.19c3.97,0,7.36-1.4,10.16-4.19
		c2.81-2.8,4.21-6.18,4.21-10.15c0-3.97-1.4-7.35-4.21-10.16s-6.19-4.21-10.16-4.21C202.43,88.08,199.05,89.48,196.24,92.29z"/>
	<path d="M231.38,87.86h2.85v5.67c0.59-0.84,1.28-1.66,2.06-2.44c2.51-2.51,5.09-3.83,7.72-3.96v3.1c-1.79,0.08-3.65,1.09-5.57,3.01
		c-2.7,2.68-4.1,5.9-4.21,9.65v16.05h-2.85V87.86z"/>
	<path d="M256.04,87.86V74.63h2.85v13.23h6.33v2.85h-6.33v28.24h-2.85V90.71h-6.33v-2.85H256.04z"/>
</g>
<g>
	<g>
		<path class="st0" d="M23.7,115.92c0.03-4.24,0.07-8.53,1.07-12.65c1-4.12,3.08-8.12,6.49-10.65c1.5-1.11,3.22-1.91,4.99-2.53
			c8.47-2.97,18.83-1.49,24.93,5.1c3.76,4.07,5.47,10.77,2.04,15.12c-3.04,3.86-8.61,4.37-12.94,6.69
			c-4.24,2.27-7.45,6.4-12.06,7.78c-3.18,0.95-6.78,0.39-9.52-1.49c-2.74-1.88-4.56-5.03-4.82-8.34"/>
		<g>
			<path class="st0" d="M25.84,115.92c0.09-10.08,1.11-20.91,12.33-24.2c8.02-2.35,18.83-0.49,23.21,7.4
				c2.69,4.84,1.75,9.94-3.37,12.48c-3.29,1.63-6.9,2.33-10.05,4.29c-3.46,2.16-6.29,5.66-10.31,6.84
				c-6.04,1.77-10.87-2.62-11.71-8.33c-0.4-2.71-4.52-1.56-4.12,1.14c0.81,5.56,4.62,10.22,10.21,11.51
				c5.36,1.23,9.73-1.17,13.87-4.29c3.25-2.45,6.17-4.33,9.99-5.74c2.42-0.89,4.92-1.75,6.96-3.37c4.2-3.32,5.19-8.61,3.58-13.58
				C62.82,88.94,49.6,84.98,39.11,87.1c-14.59,2.95-17.43,15.74-17.55,28.82C21.54,118.67,25.82,118.68,25.84,115.92L25.84,115.92z"
				/>
		</g>
	</g>
	<g>
		<path class="st0" d="M4.91,96.97c-1.48-0.28-2.99,0.8-3.49,2.22s-0.1,3.04,0.72,4.29s2.03,2.21,3.28,3.05
			c1.81,1.21,3.92,2.27,6.08,1.96c2.74-0.4,4.79-3.12,4.89-5.89c0.03-0.88-0.11-1.8-0.55-2.56c-0.58-1-1.61-1.64-2.6-2.24
			c-1.47-0.89-2.96-1.8-4.63-2.19s-3.58-0.19-4.87,0.94"/>
		<g>
			<path class="st0" d="M4.91,95.65c-4.68-0.21-6.08,5.03-3.9,8.49c2.32,3.69,8.29,7.13,12.55,5.04c3.69-1.81,5.65-7.3,2.81-10.64
				c-2.93-3.45-9.28-5.97-13.28-3.14c-1.37,0.97-0.06,3.25,1.33,2.27c2.47-1.75,4.94-0.62,7.29,0.71c0.94,0.53,2.46,1.32,3.01,2.3
				c0.88,1.58,0.22,3.63-0.85,4.9c-2.13,2.53-4.99,1.58-7.38,0.05c-1.01-0.64-1.98-1.33-2.73-2.28c-1.27-1.58-2.07-5.23,1.16-5.09
				C6.6,98.36,6.59,95.73,4.91,95.65L4.91,95.65z"/>
		</g>
	</g>
	<g>
		<path class="st0" d="M18.91,71.53c-1.37-1.33-3.52-1.28-4.79-0.17s-1.75,3.04-1.58,4.9c0.17,1.87,0.9,3.69,1.73,5.42
			c1.21,2.51,2.81,5.08,5.2,6.27c3.04,1.51,6.62,0.15,8.22-2.61c0.51-0.88,0.86-1.91,0.82-3.01c-0.06-1.43-0.77-2.81-1.46-4.12
			c-1.03-1.94-2.08-3.92-3.59-5.5c-1.51-1.57-3.58-2.7-5.52-2.45"/>
		<g>
			<path class="st0" d="M19.7,70.17c-4.87-3.62-9.24,1.55-8.68,6.51c0.59,5.18,4.38,12.6,10.11,13.4c5.05,0.7,9.99-4.1,8.74-9.22
				c-1.29-5.3-5.9-12.26-11.93-12.15c-2.02,0.03-2.03,3.18,0,3.15c5.69-0.1,13.28,13.51,5.06,15.02c-3.38,0.62-5.51-2.43-6.89-5.04
				c-0.64-1.2-1.26-2.46-1.6-3.78c-0.31-0.95-0.44-1.92-0.41-2.92c1.04-3.03,2.38-3.78,4.02-2.26
				C19.74,74.09,21.31,71.36,19.7,70.17L19.7,70.17z"/>
		</g>
	</g>
	<g>
		<path class="st0" d="M47.94,64.96c-0.34-1.96-2.19-3.25-3.95-3.09s-3.35,1.49-4.36,3.17c-1.01,1.68-1.51,3.67-1.88,5.65
			c-0.53,2.87-0.75,6.03,0.54,8.51c1.64,3.15,5.5,4.21,8.56,2.86c0.98-0.43,1.91-1.09,2.54-2.04c0.83-1.25,1.08-2.85,1.3-4.39
			c0.33-2.28,0.66-4.6,0.35-6.86c-0.31-2.26-1.36-4.49-3.16-5.47"/>
		<g>
			<path class="st0" d="M49.52,64.52c-1.75-5.6-7.98-5.17-10.98-0.79c-3.18,4.63-4.62,13.96-0.19,18.27
				c3.79,3.69,10.71,2.72,12.98-2.15c2.5-5.34,2.6-14.29-2.62-17.97c-1.74-1.22-3.39,1.63-1.66,2.84
				c4.79,3.37,3.01,18.45-4.58,15.99c-4.01-1.3-3.72-6.3-3.13-9.59c0.18-0.99,0.39-1.98,0.71-2.93c0.43-1.28,4.54-8.42,6.3-2.8
				C46.98,67.41,50.16,66.55,49.52,64.52L49.52,64.52z"/>
		</g>
	</g>
	<g>
		<path class="st0" d="M71.54,80.53c0.07-1.31-1.04-2.49-2.33-2.75s-2.63,0.27-3.63,1.12c-0.99,0.86-1.67,2.02-2.25,3.19
			c-0.84,1.71-1.5,3.66-0.98,5.48c0.67,2.32,3.26,3.77,5.67,3.54c0.77-0.07,1.54-0.3,2.15-0.78c0.8-0.62,1.23-1.58,1.63-2.51
			c0.6-1.37,1.21-2.77,1.35-4.26c0.14-1.49-0.26-3.11-1.39-4.09"/>
		<g>
			<path class="st0" d="M72.68,80.53c-0.37-4.04-4.78-4.91-7.68-2.62c-3.05,2.42-5.39,8.17-2.93,11.64
				c2.07,2.92,7.06,3.88,9.53,0.96c2.61-3.09,3.94-8.67,0.97-11.85c-1.01-1.08-2.63,0.54-1.62,1.62c2.95,3.16-0.66,11.38-5.31,9.26
				c-2.91-1.32-2.5-4.43-1.32-6.88c0.41-0.84,0.87-1.72,1.51-2.41c0.95-1.03,4.28-2.82,4.56,0.27C70.52,81.99,72.82,82,72.68,80.53
				L72.68,80.53z"/>
		</g>
	</g>
</g>
<g>
	<g>
		<path class="st0" d="M330.62,115.92c-0.03-4.24-0.07-8.53-1.07-12.65c-1-4.12-3.08-8.12-6.49-10.65c-1.5-1.11-3.22-1.91-4.99-2.53
			c-8.47-2.97-18.83-1.49-24.93,5.1c-3.76,4.07-5.47,10.77-2.04,15.12c3.04,3.86,8.61,4.37,12.94,6.69
			c4.24,2.27,7.45,6.4,12.06,7.78c3.18,0.95,6.78,0.39,9.52-1.49c2.74-1.88,4.56-5.03,4.82-8.34"/>
		<g>
			<path class="st0" d="M332.75,115.92c-0.11-12.76-2.71-25.41-16.85-28.68c-10.63-2.46-24.33,1.47-28.02,12.81
				c-1.61,4.95-0.63,10.28,3.58,13.58c2.06,1.62,4.54,2.47,6.96,3.37c3.58,1.33,6.39,2.95,9.42,5.28c4.28,3.3,8.82,6.05,14.44,4.74
				c5.59-1.3,9.39-5.94,10.21-11.51c0.39-2.69-3.73-3.85-4.12-1.14c-0.83,5.72-5.66,10.11-11.71,8.33
				c-4.02-1.18-6.84-4.68-10.31-6.84c-3.15-1.96-6.76-2.66-10.05-4.29c-5.12-2.54-6.06-7.64-3.37-12.48
				c4.38-7.88,15.18-9.75,23.21-7.4c11.22,3.29,12.24,14.12,12.33,24.2C328.5,118.67,332.78,118.68,332.75,115.92L332.75,115.92z"/>
		</g>
	</g>
	<g>
		<path class="st0" d="M349.42,96.97c1.48-0.28,2.99,0.8,3.49,2.22s0.1,3.04-0.72,4.29c-0.82,1.26-2.03,2.21-3.28,3.05
			c-1.81,1.21-3.92,2.27-6.08,1.96c-2.74-0.4-4.79-3.12-4.89-5.89c-0.03-0.88,0.11-1.8,0.55-2.56c0.58-1,1.61-1.64,2.6-2.24
			c1.47-0.89,2.96-1.8,4.63-2.19c1.67-0.39,3.58-0.19,4.87,0.94"/>
		<g>
			<path class="st0" d="M349.42,98.28c2.71-0.12,2.7,2.88,1.63,4.54c-0.68,1.06-1.77,1.88-2.81,2.58c-2.43,1.63-5.53,2.88-7.78,0.2
				c-2.31-2.75-0.97-5.32,1.72-6.94c2.42-1.45,5.1-2.84,7.73-0.98c1.38,0.98,2.7-1.3,1.33-2.27c-3.99-2.83-10.16-0.32-13.18,3.01
				c-3,3.31-1.03,8.94,2.7,10.77c4.22,2.07,9.81-1.22,12.29-4.68c2.45-3.42,1.3-9.07-3.64-8.85
				C347.73,95.73,347.72,98.36,349.42,98.28L349.42,98.28z"/>
		</g>
	</g>
	<g>
		<path class="st0" d="M335.41,71.53c1.37-1.33,3.52-1.28,4.79-0.17c1.27,1.11,1.75,3.04,1.58,4.9c-0.17,1.87-0.9,3.69-1.73,5.42
			c-1.21,2.51-2.81,5.08-5.2,6.27c-3.04,1.51-6.62,0.15-8.22-2.61c-0.51-0.88-0.86-1.91-0.82-3.01c0.06-1.43,0.77-2.81,1.46-4.12
			c1.03-1.94,2.08-3.92,3.59-5.5s3.58-2.7,5.52-2.45"/>
		<g>
			<path class="st0" d="M336.21,72.89c1.65-1.53,2.99-0.77,4.02,2.26c0.03,1-0.1,1.97-0.41,2.92c-0.35,1.32-0.97,2.58-1.6,3.78
				c-1.39,2.62-3.5,5.66-6.89,5.04c-8.32-1.53-0.61-15.12,5.06-15.02c2.03,0.03,2.03-3.11,0-3.15c-6.03-0.1-10.64,6.86-11.93,12.15
				c-1.26,5.14,3.7,9.88,8.74,9.22c5.73-0.75,9.53-8.24,10.11-13.4c0.56-4.96-3.81-10.14-8.68-6.51
				C333.01,71.36,334.58,74.1,336.21,72.89L336.21,72.89z"/>
		</g>
	</g>
	<g>
		<path class="st0" d="M306.39,64.96c0.34-1.96,2.19-3.25,3.95-3.09c1.76,0.15,3.35,1.49,4.36,3.17c1.01,1.68,1.51,3.67,1.88,5.65
			c0.53,2.87,0.75,6.03-0.54,8.51c-1.64,3.15-5.5,4.21-8.56,2.86c-0.98-0.43-1.91-1.09-2.54-2.04c-0.83-1.25-1.08-2.85-1.3-4.39
			c-0.33-2.28-0.66-4.6-0.35-6.86c0.31-2.26,1.36-4.49,3.16-5.47"/>
		<g>
			<path class="st0" d="M307.97,65.4c1.59-5.1,5.54,0.68,6.12,2.23c0.42,1.11,0.67,2.34,0.89,3.51c0.6,3.33,0.84,8.26-3.13,9.59
				c-7.69,2.58-9.23-12.73-4.58-15.99c1.72-1.21,0.08-4.07-1.66-2.84c-5.22,3.67-5.04,12.38-2.7,17.77
				c2.19,5.04,9.19,6.06,13.07,2.34c4.33-4.15,3.01-13.17,0.14-17.79c-2.86-4.61-9.45-5.64-11.31,0.31
				C304.16,66.55,307.34,67.42,307.97,65.4L307.97,65.4z"/>
		</g>
	</g>
	<g>
		<path class="st0" d="M282.78,80.53c-0.07-1.31,1.04-2.49,2.33-2.75s2.63,0.27,3.63,1.12s1.67,2.02,2.25,3.19
			c0.84,1.71,1.5,3.66,0.98,5.48c-0.67,2.32-3.26,3.77-5.67,3.54c-0.77-0.07-1.54-0.3-2.15-0.78c-0.8-0.62-1.23-1.58-1.63-2.51
			c-0.6-1.37-1.21-2.77-1.35-4.26c-0.14-1.49,0.26-3.11,1.39-4.09"/>
		<g>
			<path class="st0" d="M283.93,80.53c0.28-3.12,3.71-1.19,4.56-0.27c0.62,0.67,1.11,1.59,1.51,2.41c1.17,2.43,1.61,5.54-1.32,6.88
				c-4.68,2.12-8.25-6.11-5.31-9.26c1.01-1.08-0.61-2.7-1.62-1.62c-2.98,3.19-1.61,8.58,0.88,11.73c2.42,3.06,7.53,2.12,9.62-0.84
				c2.45-3.46,0.14-9.07-2.81-11.55c-2.87-2.41-7.42-1.56-7.8,2.53C281.5,82,283.8,81.99,283.93,80.53L283.93,80.53z"/>
		</g>
	</g>
</g>
</svg>
